<svg width="76" height="16" viewBox="0 0 76 16" fill="none" xmlns="http://www.w3.org/2000/svg">
    <path 
        d="M5.81493 12.5999C4.34061 12.5999 3.29926 14.6523 2.10291 13.7872C0.90656 12.9221 2.53795 10.6512 2.10291 9.56977C1.66787 8.48838 -0.289791 8 0.0364866 6.65C0.362764 5.30001 2.75547 5.67675 3.51678 4.85305C4.2781 4.02935 4.4246 2 6.01824 2C7.61189 2 7.85485 4.28427 8.48644 4.85305C9.28102 5.56861 12 5.15728 12 6.65C12 8.14273 10.0646 8.37009 9.82482 9.56977C9.58504 10.7695 10.9124 12.7058 9.82482 13.5709C8.73722 14.4361 7.28926 12.5999 5.81493 12.5999Z
        M21.8149 12.5999C20.3406 12.5999 19.2993 14.6523 18.1029 13.7872C16.9066 12.9221 18.5379 10.6512 18.1029 9.56977C17.6679 8.48838 15.7102 8 16.0365 6.65C16.3628 5.30001 18.7555 5.67675 19.5168 4.85305C20.2781 4.02935 20.4246 2 22.0182 2C23.6119 2 23.8548 4.28427 24.4864 4.85305C25.281 5.56861 28 5.15728 28 6.65C28 8.14273 26.0646 8.37009 25.8248 9.56977C25.585 10.7695 26.9124 12.7058 25.8248 13.5709C24.7372 14.4361 23.2893 12.5999 21.8149 12.5999Z
        M37.8149 12.5999C36.3406 12.5999 35.2993 14.6523 34.1029 13.7872C32.9066 12.9221 34.5379 10.6512 34.1029 9.56977C33.6679 8.48838 31.7102 8 32.0365 6.65C32.3628 5.30001 34.7555 5.67675 35.5168 4.85305C36.2781 4.02935 36.4246 2 38.0182 2C39.6119 2 39.8548 4.28427 40.4864 4.85305C41.281 5.56861 44 5.15728 44 6.65C44 8.14273 42.0646 8.37009 41.8248 9.56977C41.585 10.7695 42.9124 12.7058 41.8248 13.5709C40.7372 14.4361 39.2893 12.5999 37.8149 12.5999Z
        M53.8149 12.5999C52.3406 12.5999 51.2993 14.6523 50.1029 13.7872C48.9066 12.9221 50.5379 10.6512 50.1029 9.56977C49.6679 8.48838 47.7102 8 48.0365 6.65C48.3628 5.30001 50.7555 5.67675 51.5168 4.85305C52.2781 4.02935 52.4246 2 54.0182 2C55.6119 2 55.8548 4.28427 56.4864 4.85305C57.281 5.56861 60 5.15728 60 6.65C60 8.14273 58.0646 8.37009 57.8248 9.56977C57.585 10.7695 58.9124 12.7058 57.8248 13.5709C56.7372 14.4361 55.2893 12.5999 53.8149 12.5999Z
        M69.8149 12.5999C68.3406 12.5999 67.2993 14.6523 66.1029 13.7872C64.9066 12.9221 66.5379 10.6512 66.1029 9.56977C65.6679 8.48838 63.7102 8 64.0365 6.65C64.3628 5.30001 66.7555 5.67675 67.5168 4.85305C68.2781 4.02935 68.4246 2 70.0182 2C71.6119 2 71.8548 4.28427 72.4864 4.85305C73.281 5.56861 76 5.15728 76 6.65C76 8.14273 74.0646 8.37009 73.8248 9.56977C73.585 10.7695 74.9124 12.7058 73.8248 13.5709C72.7372 14.4361 71.2893 12.5999 69.8149 12.5999Z"
        fill="#FABC22"
    />
</svg>